<svg width="40" height="41" viewBox="0 0 40 41" fill="none" xmlns="http://www.w3.org/2000/svg">
<mask id="path-1-inside-1_57_50120" fill="white">
<path d="M24.9998 34.95C24.6831 34.95 24.3665 34.8333 24.1165 34.5833L13.2498 23.7166C11.4831 21.95 11.4831 19.05 13.2498 17.2833L24.1165 6.41664C24.5998 5.9333 25.3998 5.9333 25.8831 6.41664C26.3665 6.89997 26.3665 7.69997 25.8831 8.18331L15.0165 19.05C14.2165 19.85 14.2165 21.15 15.0165 21.95L25.8831 32.8166C26.3665 33.3 26.3665 34.1 25.8831 34.5833C25.6331 34.8166 25.3165 34.95 24.9998 34.95Z"/>
</mask>
<path d="M24.9998 34.95C24.6831 34.95 24.3665 34.8333 24.1165 34.5833L13.2498 23.7166C11.4831 21.95 11.4831 19.05 13.2498 17.2833L24.1165 6.41664C24.5998 5.9333 25.3998 5.9333 25.8831 6.41664C26.3665 6.89997 26.3665 7.69997 25.8831 8.18331L15.0165 19.05C14.2165 19.85 14.2165 21.15 15.0165 21.95L25.8831 32.8166C26.3665 33.3 26.3665 34.1 25.8831 34.5833C25.6331 34.8166 25.3165 34.95 24.9998 34.95Z" fill="#292D32"/>
<path d="M24.1165 34.5833L36.1373 22.5625L24.1165 34.5833ZM13.2498 23.7166L1.22899 35.7375L1.22899 35.7375L13.2498 23.7166ZM13.2498 17.2833L1.22899 5.26249L1.22899 5.26249L13.2498 17.2833ZM24.1165 6.41664L36.1373 18.4375L36.1373 18.4375L24.1165 6.41664ZM25.8831 8.18331L13.8623 -3.83751L25.8831 8.18331ZM15.0165 19.05L27.0373 31.0708L15.0165 19.05ZM15.0165 21.95L2.99566 33.9708H2.99566L15.0165 21.95ZM25.8831 32.8166L37.904 20.7958V20.7958L25.8831 32.8166ZM25.8831 34.5833L37.4825 47.0112L37.6968 46.8113L37.904 46.6041L25.8831 34.5833ZM24.9998 17.95C28.9485 17.95 33.0311 19.4563 36.1373 22.5625L12.0957 46.6041C15.7018 50.2103 20.4178 51.95 24.9998 51.95V17.95ZM36.1373 22.5625L25.2706 11.6958L1.22899 35.7375L12.0957 46.6041L36.1373 22.5625ZM25.2706 11.6958C30.1429 16.5681 30.1429 24.4319 25.2706 29.3041L1.22899 5.26249C-7.17659 13.6681 -7.17659 27.3319 1.22899 35.7375L25.2706 11.6958ZM25.2706 29.3041L36.1373 18.4375L12.0957 -5.60418L1.22899 5.26249L25.2706 29.3041ZM36.1373 18.4375C29.9817 24.593 20.0179 24.593 13.8623 18.4375L37.904 -5.60418C30.7817 -12.7264 19.2179 -12.7264 12.0957 -5.60418L36.1373 18.4375ZM13.8623 18.4375C7.70674 12.2819 7.70674 2.31807 13.8623 -3.83751L37.904 20.2041C45.0262 13.0819 45.0262 1.51807 37.904 -5.60418L13.8623 18.4375ZM13.8623 -3.83751L2.99566 7.02916L27.0373 31.0708L37.904 20.2041L13.8623 -3.83751ZM2.99566 7.02916C-4.44326 14.4681 -4.44326 26.5319 2.99566 33.9708L27.0373 9.92916C32.8762 15.7681 32.8762 25.2319 27.0373 31.0708L2.99566 7.02916ZM2.99566 33.9708L13.8623 44.8375L37.904 20.7958L27.0373 9.92916L2.99566 33.9708ZM13.8623 44.8375C7.70674 38.6819 7.70674 28.7181 13.8623 22.5625L37.904 46.6041C45.0262 39.4819 45.0262 27.9181 37.904 20.7958L13.8623 44.8375ZM14.2837 22.1554C16.829 19.7798 20.5512 17.95 24.9998 17.95V51.95C30.0817 51.95 34.4373 49.8535 37.4825 47.0112L14.2837 22.1554Z" fill="#343434" mask="url(#path-1-inside-1_57_50120)"/>
</svg>
